<svg xmlns="http://www.w3.org/2000/svg" viewBox="8966 6263 35.008 35">
  <defs>
    <style>
      .cls-1 {
        fill: #fff;
      }
    </style>
  </defs>
  <g id="if_Glyph_1164452" transform="translate(8961.9 6258.9)">
    <path id="Path_20" data-name="Path 20" class="cls-1" d="M21.6,7.253c4.675,0,5.223.021,7.071.1a9.549,9.549,0,0,1,3.251.6,5.43,5.43,0,0,1,2.014,1.306,5.346,5.346,0,0,1,1.306,2.014,9.728,9.728,0,0,1,.6,3.251c.083,1.848.1,2.4.1,7.071s-.021,5.223-.1,7.071a9.549,9.549,0,0,1-.6,3.251,5.43,5.43,0,0,1-1.306,2.014,5.346,5.346,0,0,1-2.014,1.306,9.728,9.728,0,0,1-3.251.6c-1.848.083-2.4.1-7.071.1s-5.223-.021-7.071-.1a9.549,9.549,0,0,1-3.251-.6,5.43,5.43,0,0,1-2.014-1.306,5.346,5.346,0,0,1-1.306-2.014,9.728,9.728,0,0,1-.6-3.251c-.083-1.848-.1-2.4-.1-7.071s.021-5.223.1-7.071a9.549,9.549,0,0,1,.6-3.251A5.43,5.43,0,0,1,9.261,9.268a5.346,5.346,0,0,1,2.014-1.306,9.728,9.728,0,0,1,3.251-.6c1.848-.09,2.4-.1,7.071-.1m0-3.153c-4.751,0-5.348.021-7.217.1a12.825,12.825,0,0,0-4.244.813,8.528,8.528,0,0,0-3.1,2.021,8.679,8.679,0,0,0-2.021,3.1A12.833,12.833,0,0,0,4.2,14.387c-.083,1.861-.1,2.459-.1,7.21s.021,5.348.1,7.217a12.909,12.909,0,0,0,.813,4.251,8.528,8.528,0,0,0,2.021,3.1,8.679,8.679,0,0,0,3.1,2.021A12.833,12.833,0,0,0,14.387,39c1.868.083,2.459.1,7.217.1s5.348-.021,7.217-.1a12.909,12.909,0,0,0,4.251-.813,8.528,8.528,0,0,0,3.1-2.021,8.679,8.679,0,0,0,2.021-3.1A12.833,12.833,0,0,0,39,28.813c.083-1.868.1-2.459.1-7.217s-.021-5.348-.1-7.217a12.909,12.909,0,0,0-.813-4.251,8.528,8.528,0,0,0-2.021-3.1,8.679,8.679,0,0,0-3.1-2.021A12.833,12.833,0,0,0,28.82,4.2c-1.875-.076-2.473-.1-7.224-.1Z" transform="translate(0 0)"/>
    <path id="Path_21" data-name="Path 21" class="cls-1" d="M135.588,126.6a8.988,8.988,0,1,0,8.988,8.988A8.989,8.989,0,0,0,135.588,126.6Zm0,14.822a5.834,5.834,0,1,1,5.834-5.834A5.834,5.834,0,0,1,135.588,141.422Z" transform="translate(-113.991 -113.991)"/>
    <ellipse id="Ellipse_3" data-name="Ellipse 3" class="cls-1" cx="2.098" cy="2.098" rx="2.098" ry="2.098" transform="translate(28.841 10.157)"/>
  </g>
</svg>
